<?xml version="1.0" encoding="UTF-8" standalone="no"?>
<!-- Created with Inkscape (http://www.inkscape.org/) -->

<svg
   xmlns:dc="http://purl.org/dc/elements/1.1/"
   xmlns:cc="http://creativecommons.org/ns#"
   xmlns:rdf="http://www.w3.org/1999/02/22-rdf-syntax-ns#"
   xmlns:svg="http://www.w3.org/2000/svg"
   xmlns="http://www.w3.org/2000/svg"
   xmlns:sodipodi="http://sodipodi.sourceforge.net/DTD/sodipodi-0.dtd"
   xmlns:inkscape="http://www.inkscape.org/namespaces/inkscape"
   width="256"
   height="256"
   viewBox="0 0 67.733331 67.733336"
   version="1.1"
   id="svg8"
   inkscape:version="0.92.3 (2405546, 2018-03-11)"
   sodipodi:docname="logo_01.svg">
  <defs
     id="defs2" />
  <sodipodi:namedview
     id="base"
     pagecolor="#ffffff"
     bordercolor="#666666"
     borderopacity="1.0"
     inkscape:pageopacity="0.0"
     inkscape:pageshadow="2"
     inkscape:zoom="1.7940072"
     inkscape:cx="-40.041945"
     inkscape:cy="167.40931"
     inkscape:document-units="mm"
     inkscape:current-layer="layer2"
     showgrid="false"
     units="px"
     fit-margin-top="0"
     fit-margin-left="0"
     fit-margin-right="0"
     fit-margin-bottom="0"
     showguides="true"
     inkscape:guide-bbox="true"
     inkscape:window-width="1920"
     inkscape:window-height="1001"
     inkscape:window-x="-9"
     inkscape:window-y="-9"
     inkscape:window-maximized="1">
    <inkscape:grid
       type="xygrid"
       id="grid849" />
  </sodipodi:namedview>
  <metadata
     id="metadata5">
    <rdf:RDF>
      <cc:Work
         rdf:about="">
        <dc:format>image/svg+xml</dc:format>
        <dc:type
           rdf:resource="http://purl.org/dc/dcmitype/StillImage" />
        <dc:title></dc:title>
      </cc:Work>
    </rdf:RDF>
  </metadata>
  <g
     inkscape:label="background"
     inkscape:groupmode="layer"
     id="layer1"
     transform="translate(0,-229.64461)">
    <path
       style="opacity:1;fill:#cc0213;fill-opacity:1;stroke:none;stroke-width:0.39298886;stroke-miterlimit:4;stroke-dasharray:none;stroke-opacity:1"
       d="M 33.866466,229.64475 A 33.866575,33.866575 0 0 0 5.6387932,244.83939 H 62.096987 A 33.866575,33.866575 0 0 0 33.866466,229.64475 Z"
       id="rect847"
       inkscape:connector-curvature="0" />
    <path
       style="opacity:1;fill:#952e37;fill-opacity:1;stroke:none;stroke-width:0.4018212;stroke-miterlimit:4;stroke-dasharray:none;stroke-opacity:1"
       d="M 5.7301802,244.69073 A 33.866575,33.866575 0 0 0 0.16165517,260.28748 H 67.547718 a 33.866575,33.866575 0 0 0 -5.557156,-15.59675 z"
       id="rect854"
       inkscape:connector-curvature="0" />
    <path
       style="opacity:1;fill:#80010c;fill-opacity:1;stroke:none;stroke-width:0.39298886;stroke-miterlimit:4;stroke-dasharray:none;stroke-opacity:1"
       d="M 0.16165517,260.28748 A 33.866575,33.866575 0 0 0 1.6666666e-7,263.51121 33.866575,33.866575 0 0 0 3.7590612,279.00357 H 63.946657 a 33.866575,33.866575 0 0 0 3.786676,-15.49236 33.866575,33.866575 0 0 0 -0.185615,-3.22373 z"
       id="rect859"
       inkscape:connector-curvature="0" />
  </g>
  <g
     inkscape:groupmode="layer"
     id="layer2"
     inkscape:label="Sun"
     transform="translate(0,-64.558342)">
    <circle
       r="9.1894875"
       cy="85.124657"
       cx="34.813133"
       id="circle1159"
       style="opacity:1;fill:#ecf5e7;fill-opacity:1;stroke:none;stroke-width:0.38591024;stroke-miterlimit:4;stroke-dasharray:none;stroke-opacity:1" />
  </g>
  <g
     inkscape:groupmode="layer"
     id="layer4"
     inkscape:label="Mountain 1"
     style="display:inline"
     transform="translate(0,-64.558342)">
    <path
       style="opacity:1;fill:#e55b00;fill-opacity:1;stroke:none;stroke-width:0.30169809;stroke-miterlimit:4;stroke-dasharray:none;stroke-opacity:1"
       d="m 49.463173,90.504849 -31.5103,37.601971 1.889481,1.17747 a 33.866575,33.866575 0 0 0 13.879885,3.00725 33.866575,33.866575 0 0 0 31.63134,-21.8785 z"
       id="circle1077"
       inkscape:connector-curvature="0" />
    <path
       style="opacity:1;fill:#fb6b0b;fill-opacity:1;stroke:none;stroke-width:0.30169809;stroke-miterlimit:4;stroke-dasharray:none;stroke-opacity:1"
       d="M 49.463173,90.504849 37.8306,104.2641 57.489,122.53504 a 33.866575,33.866575 0 0 0 5.20135,-6.64608 l -14.619918,-7.41617 -1.70833,-7.35241 z"
       id="circle1080"
       inkscape:connector-curvature="0" />
  </g>
  <g
     inkscape:groupmode="layer"
     id="layer3"
     inkscape:label="Mountain 2"
     style="display:inline"
     transform="translate(0,-64.558342)">
    <path
       style="opacity:1;fill:#803300;fill-opacity:1;stroke:none;stroke-width:0.30169809;stroke-miterlimit:4;stroke-dasharray:none;stroke-opacity:1"
       d="m 20.263547,87.983781 -19.53614183,15.545159 -0.125505,1.78104 a 33.866575,33.866575 0 0 0 33.12033883,26.98156 33.866575,33.866575 0 0 0 23.766354,-9.75609 z"
       id="circle1071"
       inkscape:connector-curvature="0" />
    <path
       style="opacity:1;fill:#aa4400;fill-opacity:1;stroke:none;stroke-width:0.30169809;stroke-miterlimit:4;stroke-dasharray:none;stroke-opacity:1"
       d="M 20.263547,87.983781 0.23878817,103.27793 A 33.866575,33.866575 0 0 0 30.048881,132.0783 L 19.327743,114.56323 15.688502,99.931944 Z"
       id="circle1073"
       inkscape:connector-curvature="0" />
  </g>
</svg>
